<svg width="200" height="29" viewBox="0 0 200 29" fill="none" xmlns="http://www.w3.org/2000/svg">
<path d="M14.9021 20.6688C14.2964 22.0568 13.615 23.2682 12.8579 24.3029C12.126 25.3123 11.3437 26.1704 10.5109 26.877C9.70331 27.5584 8.88313 28.0631 8.05032 28.3912C7.21751 28.7193 6.40994 28.8833 5.6276 28.8833C4.84527 28.8833 4.12603 28.7066 3.46988 28.3533C2.83896 28 2.28376 27.47 1.80426 26.7634C1.32477 26.0568 0.933598 25.1861 0.630759 24.1514C0.353157 23.1167 0.214355 21.9054 0.214355 20.5174C0.214355 18.1451 0.542431 15.8107 1.19858 13.5142C1.85473 11.1924 2.77587 9.11042 3.96199 7.26815C5.14811 5.42588 6.54874 3.94954 8.16388 2.83913C9.80426 1.70348 11.6087 1.13566 13.5771 1.13566C14.1828 1.13566 14.7633 1.26184 15.3185 1.51421C15.8737 1.76657 16.3532 2.11989 16.7569 2.57415C17.1607 3.0284 17.4762 3.58361 17.7033 4.23976C17.9557 4.89591 18.0819 5.62777 18.0819 6.43534C18.0819 6.58676 18.0819 6.7508 18.0819 6.92746C18.0819 7.07888 18.0692 7.24292 18.044 7.41957L13.085 8.74449C12.7822 8.11358 12.4289 7.79812 12.0251 7.79812C11.6213 7.79812 11.1923 8.03787 10.738 8.51736C10.309 8.97162 9.87997 9.5773 9.45095 10.3344C9.02193 11.0663 8.60552 11.8991 8.20174 12.8328C7.79795 13.7413 7.44464 14.6625 7.1418 15.5962C6.83896 16.53 6.5866 17.4259 6.3847 18.2839C6.20805 19.1167 6.11972 19.7981 6.11972 20.3281C6.11972 21.1357 6.22066 21.7035 6.42256 22.0316C6.64969 22.3596 6.93991 22.5237 7.29322 22.5237C7.57082 22.5237 7.88628 22.4227 8.23959 22.2208C8.5929 21.9937 8.92098 21.7161 9.22382 21.388C9.52666 21.0347 9.80426 20.6435 10.0566 20.2145C10.309 19.7855 10.4856 19.3565 10.5866 18.9275L14.9021 20.6688ZM35.6111 8.32809C35.6111 10.3975 35.3839 12.3533 34.9297 14.1956C34.5007 16.0126 33.9202 17.6909 33.1884 19.2303C32.4565 20.7445 31.5985 22.1073 30.6142 23.3186C29.6552 24.5047 28.6458 25.5268 27.5858 26.3849C26.5259 27.2177 25.4533 27.8612 24.3682 28.3155C23.283 28.7445 22.2483 28.959 21.2641 28.959C20.4313 28.959 19.6742 28.8076 18.9928 28.5047C18.3114 28.1767 17.7183 27.7098 17.2136 27.1041C16.7089 26.4732 16.3051 25.6782 16.0022 24.7193C15.7246 23.735 15.5858 22.5615 15.5858 21.1987C15.5858 19.7855 15.7625 18.2965 16.1158 16.7319C16.4691 15.1672 16.9486 13.6152 17.5543 12.0757C18.16 10.5363 18.9044 9.07257 19.7877 7.68456C20.671 6.29654 21.6426 5.07257 22.7026 4.01263C23.7625 2.92746 24.8981 2.06941 26.1095 1.4385C27.3209 0.807584 28.5827 0.492126 29.895 0.492126C31.0306 0.492126 31.9644 0.731874 32.6962 1.21137C33.4533 1.66563 34.0338 2.27131 34.4376 3.0284C34.8666 3.76027 35.1694 4.59307 35.3461 5.52683C35.5227 6.46058 35.6111 7.39434 35.6111 8.32809ZM21.2262 20.2145C21.2262 20.4921 21.2767 20.7823 21.3776 21.0852C21.4786 21.388 21.6174 21.653 21.794 21.8801C21.9707 22.1073 22.1852 22.3092 22.4376 22.4858C22.7152 22.6372 23.0054 22.7129 23.3082 22.7129C24.4439 22.7129 25.4533 22.3218 26.3366 21.5394C27.2199 20.7571 27.9518 19.7981 28.5322 18.6625C29.1127 17.5268 29.5543 16.3155 29.8571 15.0284C30.1852 13.7413 30.3492 12.5678 30.3492 11.5079C30.3492 11.2051 30.324 10.877 30.2735 10.5237C30.2483 10.1704 30.1726 9.84228 30.0464 9.53944C29.9455 9.23661 29.7688 8.98424 29.5164 8.78235C29.2893 8.55522 28.9738 8.44165 28.5701 8.44165C27.7625 8.44165 27.018 8.64355 26.3366 9.04733C25.6552 9.45112 25.0369 9.9937 24.4817 10.6751C23.9518 11.3312 23.4849 12.0883 23.0811 12.9464C22.6773 13.7792 22.324 14.6372 22.0212 15.5205C21.7436 16.3786 21.5417 17.224 21.4155 18.0568C21.2893 18.8896 21.2262 19.6088 21.2262 20.2145ZM49.245 20.6688C48.6393 22.0568 47.958 23.2682 47.2009 24.3029C46.469 25.3123 45.6867 26.1704 44.8539 26.877C44.0463 27.5584 43.2261 28.0631 42.3933 28.3912C41.5605 28.7193 40.7529 28.8833 39.9706 28.8833C39.1882 28.8833 38.469 28.7066 37.8128 28.3533C37.1819 28 36.6267 27.47 36.1472 26.7634C35.6677 26.0568 35.2766 25.1861 34.9737 24.1514C34.6961 23.1167 34.5573 21.9054 34.5573 20.5174C34.5573 18.1451 34.8854 15.8107 35.5415 13.5142C36.1977 11.1924 37.1188 9.11042 38.305 7.26815C39.4911 5.42588 40.8917 3.94954 42.5068 2.83913C44.1472 1.70348 45.9516 1.13566 47.9201 1.13566C48.5258 1.13566 49.1062 1.26184 49.6614 1.51421C50.2166 1.76657 50.6961 2.11989 51.0999 2.57415C51.5037 3.0284 51.8191 3.58361 52.0463 4.23976C52.2986 4.89591 52.4248 5.62777 52.4248 6.43534C52.4248 6.58676 52.4248 6.7508 52.4248 6.92746C52.4248 7.07888 52.4122 7.24292 52.387 7.41957L47.428 8.74449C47.1251 8.11358 46.7718 7.79812 46.368 7.79812C45.9643 7.79812 45.5352 8.03787 45.081 8.51736C44.652 8.97162 44.2229 9.5773 43.7939 10.3344C43.3649 11.0663 42.9485 11.8991 42.5447 12.8328C42.1409 13.7413 41.7876 14.6625 41.4848 15.5962C41.1819 16.53 40.9296 17.4259 40.7277 18.2839C40.551 19.1167 40.4627 19.7981 40.4627 20.3281C40.4627 21.1357 40.5636 21.7035 40.7655 22.0316C40.9927 22.3596 41.2829 22.5237 41.6362 22.5237C41.9138 22.5237 42.2292 22.4227 42.5826 22.2208C42.9359 21.9937 43.2639 21.7161 43.5668 21.388C43.8696 21.0347 44.1472 20.6435 44.3996 20.2145C44.652 19.7855 44.8286 19.3565 44.9296 18.9275L49.245 20.6688ZM49.0202 28.8454C49.7773 25.3123 50.4839 21.8801 51.1401 18.5489C51.3925 17.1104 51.6574 15.6215 51.9351 14.082C52.2127 12.5426 52.465 11.0158 52.6922 9.50159C52.9445 7.98739 53.159 6.52367 53.3357 5.11042C53.5376 3.67194 53.689 2.37225 53.7899 1.21137C54.3704 1.26184 55.0265 1.31232 55.7584 1.36279C56.4903 1.38803 57.1716 1.42588 57.8026 1.47635C58.5597 1.52683 59.3168 1.55206 60.0739 1.55206C60.0486 1.65301 60.0108 1.84228 59.9603 2.11989C59.9098 2.39749 59.8467 2.73818 59.771 3.14197C59.6953 3.52052 59.607 3.94954 59.506 4.42903C59.4303 4.90853 59.342 5.38803 59.241 5.86752C59.0392 6.97793 58.812 8.22714 58.5597 9.61515L58.7868 9.5773C59.0392 9.17351 59.3925 8.61831 59.8467 7.91168C60.3262 7.17982 60.8183 6.41011 61.3231 5.60254C61.8278 4.79497 62.3199 4.02525 62.7994 3.29339C63.2787 2.53629 63.6825 1.89276 64.0106 1.36279C65.2724 1.26184 66.5342 1.14828 67.7961 1.0221C69.0579 0.895912 70.3197 0.731874 71.5816 0.529981C70.3954 2.11989 69.2472 3.68456 68.1368 5.22399C67.6573 5.88014 67.1651 6.56153 66.6604 7.26815C66.1809 7.97478 65.7014 8.66878 65.2219 9.35017C64.7424 10.0316 64.2882 10.6877 63.8592 11.3186C63.4554 11.9495 63.0896 12.53 62.7616 13.06C63.3166 15.6088 63.9727 18.0694 64.7298 20.4417C65.4869 22.8139 66.2566 25.2366 67.039 27.7098C66.4585 27.6846 65.8655 27.6719 65.2598 27.6719C64.6541 27.6467 64.061 27.6341 63.4806 27.6341C62.7489 27.6341 62.0423 27.6467 61.3609 27.6719C60.6795 27.6719 59.9729 27.6846 59.241 27.7098C59.0139 26.0694 58.7616 24.3533 58.4839 22.5615C58.2316 20.7445 57.9918 19.0158 57.7647 17.3754L57.0833 18.1704C56.9067 18.9275 56.7048 19.8612 56.4776 20.9716C56.2757 22.082 56.0738 23.1546 55.872 24.1893C55.6448 25.4006 55.4051 26.6499 55.1527 27.9369L49.0202 28.8454ZM104.615 9.46374C104.615 10.776 104.426 12.1767 104.047 13.6656C103.669 15.1294 103.139 16.5931 102.457 18.0568C101.776 19.4953 100.93 20.8833 99.921 22.2208C98.9368 23.5331 97.8137 24.694 96.5519 25.7035C95.2901 26.6877 93.9021 27.4827 92.3879 28.0883C90.8989 28.694 89.309 28.9969 87.6181 28.9969C87.2648 28.9969 86.9115 28.9716 86.5582 28.9211C86.2049 28.8959 85.8516 28.8581 85.4983 28.8076C86.1797 25.3249 86.8484 21.9306 87.5046 18.6246C87.7569 17.2366 88.0219 15.7981 88.2995 14.3092C88.5771 12.795 88.8421 11.306 89.0945 9.84228C89.3468 8.37856 89.5866 6.97793 89.8137 5.64039C90.0661 4.30285 90.268 3.0915 90.4194 2.00632C91.5046 1.80443 92.6024 1.61515 93.7128 1.4385C94.8232 1.26184 95.9588 1.17351 97.1197 1.17351C98.4825 1.17351 99.6308 1.38803 100.565 1.81705C101.524 2.24607 102.293 2.83913 102.874 3.59623C103.479 4.35333 103.921 5.23661 104.199 6.24607C104.476 7.25553 104.615 8.32809 104.615 9.46374ZM95.6812 6.51105C95.4036 8.00001 95.1134 9.42588 94.8106 10.7887C94.5077 12.1514 94.2049 13.5268 93.9021 14.9148C93.5992 16.3029 93.2964 17.754 92.9935 19.2682C92.6907 20.7823 92.4005 22.4353 92.1229 24.2271C92.7286 23.8234 93.309 23.2808 93.8642 22.5994C94.4446 21.8928 94.9872 21.0852 95.492 20.1767C95.9967 19.2682 96.451 18.3092 96.8547 17.2997C97.2838 16.2902 97.6497 15.306 97.9525 14.347C98.2554 13.388 98.4825 12.4921 98.6339 11.6593C98.8106 10.8265 98.8989 10.1073 98.8989 9.50159C98.8989 8.56784 98.6339 7.83597 98.1039 7.30601C97.5992 6.77604 96.7916 6.51105 95.6812 6.51105ZM123.255 8.32809C123.255 10.3975 123.028 12.3533 122.574 14.1956C122.145 16.0126 121.565 17.6909 120.833 19.2303C120.101 20.7445 119.243 22.1073 118.259 23.3186C117.3 24.5047 116.29 25.5268 115.23 26.3849C114.17 27.2177 113.098 27.8612 112.012 28.3155C110.927 28.7445 109.893 28.959 108.908 28.959C108.076 28.959 107.318 28.8076 106.637 28.5047C105.956 28.1767 105.363 27.7098 104.858 27.1041C104.353 26.4732 103.949 25.6782 103.647 24.7193C103.369 23.735 103.23 22.5615 103.23 21.1987C103.23 19.7855 103.407 18.2965 103.76 16.7319C104.113 15.1672 104.593 13.6152 105.199 12.0757C105.804 10.5363 106.549 9.07257 107.432 7.68456C108.315 6.29654 109.287 5.07257 110.347 4.01263C111.407 2.92746 112.542 2.06941 113.754 1.4385C114.965 0.807584 116.227 0.492126 117.539 0.492126C118.675 0.492126 119.609 0.731874 120.341 1.21137C121.098 1.66563 121.678 2.27131 122.082 3.0284C122.511 3.76027 122.814 4.59307 122.99 5.52683C123.167 6.46058 123.255 7.39434 123.255 8.32809ZM108.871 20.2145C108.871 20.4921 108.921 20.7823 109.022 21.0852C109.123 21.388 109.262 21.653 109.438 21.8801C109.615 22.1073 109.829 22.3092 110.082 22.4858C110.359 22.6372 110.65 22.7129 110.953 22.7129C112.088 22.7129 113.098 22.3218 113.981 21.5394C114.864 20.7571 115.596 19.7981 116.176 18.6625C116.757 17.5268 117.199 16.3155 117.501 15.0284C117.829 13.7413 117.994 12.5678 117.994 11.5079C117.994 11.2051 117.968 10.877 117.918 10.5237C117.893 10.1704 117.817 9.84228 117.691 9.53944C117.59 9.23661 117.413 8.98424 117.161 8.78235C116.934 8.55522 116.618 8.44165 116.214 8.44165C115.407 8.44165 114.662 8.64355 113.981 9.04733C113.3 9.45112 112.681 9.9937 112.126 10.6751C111.596 11.3312 111.129 12.0883 110.725 12.9464C110.322 13.7792 109.968 14.6372 109.665 15.5205C109.388 16.3786 109.186 17.224 109.06 18.0568C108.934 18.8896 108.871 19.6088 108.871 20.2145ZM141.924 8.32809C141.924 10.3975 141.697 12.3533 141.243 14.1956C140.814 16.0126 140.233 17.6909 139.501 19.2303C138.77 20.7445 137.912 22.1073 136.927 23.3186C135.968 24.5047 134.959 25.5268 133.899 26.3849C132.839 27.2177 131.766 27.8612 130.681 28.3155C129.596 28.7445 128.561 28.959 127.577 28.959C126.744 28.959 125.987 28.8076 125.306 28.5047C124.624 28.1767 124.031 27.7098 123.527 27.1041C123.022 26.4732 122.618 25.6782 122.315 24.7193C122.038 23.735 121.899 22.5615 121.899 21.1987C121.899 19.7855 122.076 18.2965 122.429 16.7319C122.782 15.1672 123.262 13.6152 123.867 12.0757C124.473 10.5363 125.218 9.07257 126.101 7.68456C126.984 6.29654 127.956 5.07257 129.016 4.01263C130.076 2.92746 131.211 2.06941 132.423 1.4385C133.634 0.807584 134.896 0.492126 136.208 0.492126C137.344 0.492126 138.277 0.731874 139.009 1.21137C139.766 1.66563 140.347 2.27131 140.751 3.0284C141.18 3.76027 141.482 4.59307 141.659 5.52683C141.836 6.46058 141.924 7.39434 141.924 8.32809ZM127.539 20.2145C127.539 20.4921 127.59 20.7823 127.691 21.0852C127.792 21.388 127.93 21.653 128.107 21.8801C128.284 22.1073 128.498 22.3092 128.751 22.4858C129.028 22.6372 129.318 22.7129 129.621 22.7129C130.757 22.7129 131.766 22.3218 132.65 21.5394C133.533 20.7571 134.265 19.7981 134.845 18.6625C135.426 17.5268 135.867 16.3155 136.17 15.0284C136.498 13.7413 136.662 12.5678 136.662 11.5079C136.662 11.2051 136.637 10.877 136.587 10.5237C136.561 10.1704 136.486 9.84228 136.359 9.53944C136.259 9.23661 136.082 8.98424 135.829 8.78235C135.602 8.55522 135.287 8.44165 134.883 8.44165C134.076 8.44165 133.331 8.64355 132.65 9.04733C131.968 9.45112 131.35 9.9937 130.795 10.6751C130.265 11.3312 129.798 12.0883 129.394 12.9464C128.99 13.7792 128.637 14.6372 128.334 15.5205C128.057 16.3786 127.855 17.224 127.729 18.0568C127.602 18.8896 127.539 19.6088 127.539 20.2145ZM158.662 9.46374C158.662 10.776 158.472 12.1767 158.094 13.6656C157.715 15.1294 157.185 16.5931 156.504 18.0568C155.823 19.4953 154.977 20.8833 153.968 22.2208C152.983 23.5331 151.86 24.694 150.599 25.7035C149.337 26.6877 147.949 27.4827 146.435 28.0883C144.946 28.694 143.356 28.9969 141.665 28.9969C141.312 28.9969 140.958 28.9716 140.605 28.9211C140.252 28.8959 139.898 28.8581 139.545 28.8076C140.226 25.3249 140.895 21.9306 141.551 18.6246C141.804 17.2366 142.069 15.7981 142.346 14.3092C142.624 12.795 142.889 11.306 143.141 9.84228C143.394 8.37856 143.633 6.97793 143.86 5.64039C144.113 4.30285 144.315 3.0915 144.466 2.00632C145.551 1.80443 146.649 1.61515 147.759 1.4385C148.87 1.26184 150.006 1.17351 151.166 1.17351C152.529 1.17351 153.677 1.38803 154.611 1.81705C155.57 2.24607 156.34 2.83913 156.92 3.59623C157.526 4.35333 157.968 5.23661 158.245 6.24607C158.523 7.25553 158.662 8.32809 158.662 9.46374ZM149.728 6.51105C149.45 8.00001 149.16 9.42588 148.857 10.7887C148.554 12.1514 148.252 13.5268 147.949 14.9148C147.646 16.3029 147.343 17.754 147.04 19.2682C146.737 20.7823 146.447 22.4353 146.17 24.2271C146.775 23.8234 147.356 23.2808 147.911 22.5994C148.491 21.8928 149.034 21.0852 149.539 20.1767C150.043 19.2682 150.498 18.3092 150.901 17.2997C151.33 16.2902 151.696 15.306 151.999 14.347C152.302 13.388 152.529 12.4921 152.681 11.6593C152.857 10.8265 152.946 10.1073 152.946 9.50159C152.946 8.56784 152.681 7.83597 152.151 7.30601C151.646 6.77604 150.838 6.51105 149.728 6.51105ZM166.551 27.5962C165.769 27.5962 164.936 27.6215 164.053 27.6719C163.195 27.7224 162.324 27.7981 161.441 27.8991C160.558 28 159.687 28.1388 158.829 28.3155C157.996 28.4669 157.239 28.6562 156.558 28.8833C156.709 27.7476 156.886 26.4858 157.088 25.0978C157.289 23.7098 157.517 22.2713 157.769 20.7823C158.047 19.2934 158.312 17.7918 158.564 16.2776C158.841 14.7634 159.119 13.3123 159.397 11.9243C160.028 8.61831 160.696 5.24922 161.403 1.81705L168.028 0.946385C167.346 3.87383 166.69 6.72556 166.059 9.50159C165.782 10.6877 165.504 11.9243 165.226 13.2114C164.949 14.4732 164.684 15.7098 164.431 16.9211C164.179 18.1325 163.952 19.306 163.75 20.4417C163.548 21.5773 163.384 22.5868 163.258 23.47C163.889 23.4196 164.558 23.3943 165.264 23.3943C165.996 23.3691 166.64 23.3565 167.195 23.3565C167.22 23.836 167.258 24.3155 167.308 24.795C167.359 25.2492 167.409 25.6656 167.46 26.0442C167.535 26.4227 167.586 26.7634 167.611 27.0663C167.662 27.3439 167.7 27.5331 167.725 27.6341C167.523 27.6341 167.321 27.6341 167.119 27.6341C166.942 27.6088 166.753 27.5962 166.551 27.5962ZM167.829 28.8454L172.788 1.93061L184.75 0.90853C184.573 1.46374 184.422 2.03156 184.296 2.612C184.17 3.0915 184.043 3.59623 183.917 4.1262C183.816 4.63093 183.728 5.08519 183.652 5.48897C183.4 5.51421 183.034 5.53944 182.554 5.56468C182.1 5.56468 181.608 5.5773 181.078 5.60254C180.548 5.60254 180.006 5.60254 179.45 5.60254C178.92 5.60254 178.453 5.60254 178.05 5.60254L176.725 12.3786C177.507 12.3281 178.239 12.2902 178.92 12.265C179.476 12.2398 180.043 12.2271 180.624 12.2271C181.204 12.2271 181.633 12.2145 181.911 12.1893C181.81 12.8959 181.709 13.5899 181.608 14.2713C181.532 14.9527 181.431 15.6467 181.305 16.3533C181.053 16.3786 180.636 16.4038 180.056 16.429C179.501 16.429 178.933 16.4417 178.353 16.4669C177.696 16.4921 176.977 16.5174 176.195 16.5426L174.908 23.5079L180.435 22.6372L180.056 26.9527L167.829 28.8454ZM197.198 19.4574C197.198 20.8707 196.92 22.1577 196.365 23.3186C195.835 24.4543 195.103 25.4385 194.17 26.2713C193.261 27.1041 192.176 27.7476 190.914 28.2019C189.677 28.6562 188.34 28.8833 186.901 28.8833C185.892 28.8833 184.882 28.6183 183.873 28.0883C182.864 27.5331 181.892 26.6625 180.958 25.4764L183.759 19.9874C183.936 20.3155 184.201 20.6562 184.554 21.0095C184.908 21.3376 185.299 21.6278 185.728 21.8801C186.182 22.1325 186.624 22.347 187.053 22.5237C187.507 22.6751 187.911 22.7508 188.264 22.7508C188.567 22.7508 188.882 22.7003 189.211 22.5994C189.539 22.4984 189.841 22.347 190.119 22.1451C190.397 21.9432 190.611 21.7161 190.763 21.4637C190.939 21.1861 191.028 20.8707 191.028 20.5174C191.028 19.9117 190.826 19.3565 190.422 18.8517C190.043 18.3218 189.564 17.8297 188.983 17.3754C188.403 16.8959 187.772 16.4164 187.091 15.9369C186.409 15.4574 185.778 14.9527 185.198 14.4227C184.643 13.8928 184.163 13.2997 183.759 12.6435C183.356 11.9874 183.154 11.2555 183.154 10.448C183.154 9.13566 183.545 7.91168 184.327 6.77604C185.11 5.64039 186.081 4.66878 187.242 3.86121C188.428 3.0284 189.715 2.37225 191.103 1.89276C192.491 1.41326 193.804 1.17351 195.04 1.17351C195.722 1.17351 196.365 1.26184 196.971 1.4385C197.577 1.58992 198.094 1.8549 198.523 2.23345C198.977 2.58676 199.33 3.04102 199.583 3.59623C199.86 4.15143 199.999 4.84544 199.999 5.67825C199.999 6.03156 199.961 6.38487 199.886 6.73818C199.835 7.0915 199.785 7.47004 199.734 7.87383L194.245 9.46374C194.296 9.26184 194.334 9.05995 194.359 8.85806C194.409 8.65616 194.435 8.45427 194.435 8.25238C194.435 7.49528 194.296 6.95269 194.018 6.62462C193.766 6.27131 193.425 6.09465 192.996 6.09465C192.794 6.09465 192.542 6.17036 192.239 6.32178C191.961 6.4732 191.671 6.67509 191.368 6.92746C191.091 7.15459 190.851 7.43219 190.649 7.76026C190.447 8.08834 190.346 8.44165 190.346 8.8202C190.346 9.42588 190.51 9.93061 190.838 10.3344C191.192 10.7382 191.621 11.1167 192.125 11.47C192.63 11.8234 193.173 12.1893 193.753 12.5678C194.359 12.9211 194.914 13.388 195.419 13.9685C195.924 14.5489 196.34 15.2808 196.668 16.1641C197.021 17.0221 197.198 18.1199 197.198 19.4574Z" fill="#FFD700"/>
</svg>
