<svg width="317" height="53" viewBox="0 0 317 53" fill="none" xmlns="http://www.w3.org/2000/svg">
<path d="M23.62 39.1C22.66 41.3 21.58 43.22 20.38 44.86C19.22 46.46 17.98 47.82 16.66 48.94C15.38 50.02 14.08 50.82 12.76 51.34C11.44 51.86 10.16 52.12 8.92 52.12C7.68 52.12 6.54 51.84 5.5 51.28C4.5 50.72 3.62 49.88 2.86 48.76C2.1 47.64 1.48 46.26 1 44.62C0.56 42.98 0.34 41.06 0.34 38.86C0.34 35.1 0.86 31.4 1.9 27.76C2.94 24.08 4.4 20.78 6.28 17.86C8.16 14.94 10.38 12.6 12.94 10.84C15.54 9.04 18.4 8.14 21.52 8.14C22.48 8.14 23.4 8.34 24.28 8.74C25.16 9.14 25.92 9.7 26.56 10.42C27.2 11.14 27.7 12.02 28.06 13.06C28.46 14.1 28.66 15.26 28.66 16.54C28.66 16.78 28.66 17.04 28.66 17.32C28.66 17.56 28.64 17.82 28.6 18.1L20.74 20.2C20.26 19.2 19.7 18.7 19.06 18.7C18.42 18.7 17.74 19.08 17.02 19.84C16.34 20.56 15.66 21.52 14.98 22.72C14.3 23.88 13.64 25.2 13 26.68C12.36 28.12 11.8 29.58 11.32 31.06C10.84 32.54 10.44 33.96 10.12 35.32C9.84 36.64 9.7 37.72 9.7 38.56C9.7 39.84 9.86 40.74 10.18 41.26C10.54 41.78 11 42.04 11.56 42.04C12 42.04 12.5 41.88 13.06 41.56C13.62 41.2 14.14 40.76 14.62 40.24C15.1 39.68 15.54 39.06 15.94 38.38C16.34 37.7 16.62 37.02 16.78 36.34L23.62 39.1ZM56.4438 19.54C56.4438 22.82 56.0838 25.92 55.3638 28.84C54.6838 31.72 53.7638 34.38 52.6038 36.82C51.4438 39.22 50.0838 41.38 48.5238 43.3C47.0038 45.18 45.4038 46.8 43.7238 48.16C42.0438 49.48 40.3438 50.5 38.6238 51.22C36.9038 51.9 35.2638 52.24 33.7038 52.24C32.3838 52.24 31.1838 52 30.1038 51.52C29.0238 51 28.0838 50.26 27.2838 49.3C26.4838 48.3 25.8438 47.04 25.3638 45.52C24.9238 43.96 24.7038 42.1 24.7038 39.94C24.7038 37.7 24.9838 35.34 25.5438 32.86C26.1038 30.38 26.8638 27.92 27.8238 25.48C28.7838 23.04 29.9638 20.72 31.3638 18.52C32.7638 16.32 34.3038 14.38 35.9838 12.7C37.6638 10.98 39.4638 9.62 41.3838 8.62C43.3038 7.62 45.3038 7.12 47.3838 7.12C49.1838 7.12 50.6638 7.5 51.8238 8.26C53.0238 8.98 53.9438 9.94 54.5838 11.14C55.2638 12.3 55.7438 13.62 56.0238 15.1C56.3038 16.58 56.4438 18.06 56.4438 19.54ZM33.6438 38.38C33.6438 38.82 33.7238 39.28 33.8838 39.76C34.0438 40.24 34.2638 40.66 34.5438 41.02C34.8238 41.38 35.1638 41.7 35.5638 41.98C36.0038 42.22 36.4638 42.34 36.9438 42.34C38.7438 42.34 40.3438 41.72 41.7438 40.48C43.1438 39.24 44.3038 37.72 45.2238 35.92C46.1438 34.12 46.8438 32.2 47.3238 30.16C47.8438 28.12 48.1038 26.26 48.1038 24.58C48.1038 24.1 48.0638 23.58 47.9838 23.02C47.9438 22.46 47.8238 21.94 47.6238 21.46C47.4638 20.98 47.1838 20.58 46.7838 20.26C46.4238 19.9 45.9238 19.72 45.2838 19.72C44.0038 19.72 42.8238 20.04 41.7438 20.68C40.6638 21.32 39.6838 22.18 38.8038 23.26C37.9638 24.3 37.2238 25.5 36.5838 26.86C35.9438 28.18 35.3838 29.54 34.9038 30.94C34.4638 32.3 34.1438 33.64 33.9438 34.96C33.7438 36.28 33.6438 37.42 33.6438 38.38ZM78.0536 39.1C77.0936 41.3 76.0136 43.22 74.8136 44.86C73.6536 46.46 72.4136 47.82 71.0936 48.94C69.8136 50.02 68.5136 50.82 67.1936 51.34C65.8736 51.86 64.5936 52.12 63.3536 52.12C62.1136 52.12 60.9736 51.84 59.9336 51.28C58.9336 50.72 58.0536 49.88 57.2936 48.76C56.5336 47.64 55.9136 46.26 55.4336 44.62C54.9936 42.98 54.7736 41.06 54.7736 38.86C54.7736 35.1 55.2936 31.4 56.3336 27.76C57.3736 24.08 58.8336 20.78 60.7136 17.86C62.5936 14.94 64.8136 12.6 67.3736 10.84C69.9736 9.04 72.8336 8.14 75.9536 8.14C76.9136 8.14 77.8336 8.34 78.7136 8.74C79.5936 9.14 80.3536 9.7 80.9936 10.42C81.6336 11.14 82.1336 12.02 82.4936 13.06C82.8936 14.1 83.0936 15.26 83.0936 16.54C83.0936 16.78 83.0936 17.04 83.0936 17.32C83.0936 17.56 83.0736 17.82 83.0336 18.1L75.1736 20.2C74.6936 19.2 74.1336 18.7 73.4936 18.7C72.8536 18.7 72.1736 19.08 71.4536 19.84C70.7736 20.56 70.0936 21.52 69.4136 22.72C68.7336 23.88 68.0736 25.2 67.4336 26.68C66.7936 28.12 66.2336 29.58 65.7536 31.06C65.2736 32.54 64.8736 33.96 64.5536 35.32C64.2736 36.64 64.1336 37.72 64.1336 38.56C64.1336 39.84 64.2936 40.74 64.6136 41.26C64.9736 41.78 65.4336 42.04 65.9936 42.04C66.4336 42.04 66.9336 41.88 67.4936 41.56C68.0536 41.2 68.5736 40.76 69.0536 40.24C69.5336 39.68 69.9736 39.06 70.3736 38.38C70.7736 37.7 71.0536 37.02 71.2136 36.34L78.0536 39.1ZM77.6973 52.06C78.8973 46.46 80.0173 41.02 81.0573 35.74C81.4573 33.46 81.8773 31.1 82.3173 28.66C82.7573 26.22 83.1573 23.8 83.5173 21.4C83.9173 19 84.2573 16.68 84.5373 14.44C84.8573 12.16 85.0973 10.1 85.2573 8.26C86.1773 8.34 87.2173 8.42 88.3773 8.5C89.5373 8.54 90.6173 8.6 91.6173 8.68C92.8173 8.76 94.0173 8.8 95.2173 8.8C95.1773 8.96 95.1173 9.26 95.0373 9.7C94.9573 10.14 94.8573 10.68 94.7373 11.32C94.6173 11.92 94.4773 12.6 94.3173 13.36C94.1973 14.12 94.0573 14.88 93.8973 15.64C93.5773 17.4 93.2173 19.38 92.8173 21.58L93.1773 21.52C93.5773 20.88 94.1373 20 94.8573 18.88C95.6173 17.72 96.3973 16.5 97.1973 15.22C97.9973 13.94 98.7773 12.72 99.5373 11.56C100.297 10.36 100.937 9.34 101.457 8.5C103.457 8.34 105.457 8.16 107.457 7.96C109.457 7.76 111.457 7.5 113.457 7.18C111.577 9.7 109.757 12.18 107.997 14.62C107.237 15.66 106.457 16.74 105.657 17.86C104.897 18.98 104.137 20.08 103.377 21.16C102.617 22.24 101.897 23.28 101.217 24.28C100.577 25.28 99.9973 26.2 99.4773 27.04C100.357 31.08 101.397 34.98 102.597 38.74C103.797 42.5 105.017 46.34 106.257 50.26C105.337 50.22 104.397 50.2 103.437 50.2C102.477 50.16 101.537 50.14 100.617 50.14C99.4573 50.14 98.3373 50.16 97.2573 50.2C96.1773 50.2 95.0573 50.22 93.8973 50.26C93.5373 47.66 93.1373 44.94 92.6973 42.1C92.2973 39.22 91.9173 36.48 91.5573 33.88L90.4773 35.14C90.1973 36.34 89.8773 37.82 89.5173 39.58C89.1973 41.34 88.8773 43.04 88.5573 44.68C88.1973 46.6 87.8173 48.58 87.4173 50.62L77.6973 52.06ZM165.815 21.34C165.815 23.42 165.515 25.64 164.915 28C164.315 30.32 163.475 32.64 162.395 34.96C161.315 37.24 159.975 39.44 158.375 41.56C156.815 43.64 155.035 45.48 153.035 47.08C151.035 48.64 148.835 49.9 146.435 50.86C144.075 51.82 141.555 52.3 138.875 52.3C138.315 52.3 137.755 52.26 137.195 52.18C136.635 52.14 136.075 52.08 135.515 52C136.595 46.48 137.655 41.1 138.695 35.86C139.095 33.66 139.515 31.38 139.955 29.02C140.395 26.62 140.815 24.26 141.215 21.94C141.615 19.62 141.995 17.4 142.355 15.28C142.755 13.16 143.075 11.24 143.315 9.52C145.035 9.2 146.775 8.9 148.535 8.62C150.295 8.34 152.095 8.2 153.935 8.2C156.095 8.2 157.915 8.54 159.395 9.22C160.915 9.9 162.135 10.84 163.055 12.04C164.015 13.24 164.715 14.64 165.155 16.24C165.595 17.84 165.815 19.54 165.815 21.34ZM151.655 16.66C151.215 19.02 150.755 21.28 150.275 23.44C149.795 25.6 149.315 27.78 148.835 29.98C148.355 32.18 147.875 34.48 147.395 36.88C146.915 39.28 146.455 41.9 146.015 44.74C146.975 44.1 147.895 43.24 148.775 42.16C149.695 41.04 150.555 39.76 151.355 38.32C152.155 36.88 152.875 35.36 153.515 33.76C154.195 32.16 154.775 30.6 155.255 29.08C155.735 27.56 156.095 26.14 156.335 24.82C156.615 23.5 156.755 22.36 156.755 21.4C156.755 19.92 156.335 18.76 155.495 17.92C154.695 17.08 153.415 16.66 151.655 16.66ZM195.36 19.54C195.36 22.82 195 25.92 194.28 28.84C193.6 31.72 192.68 34.38 191.52 36.82C190.36 39.22 189 41.38 187.44 43.3C185.92 45.18 184.32 46.8 182.64 48.16C180.96 49.48 179.26 50.5 177.54 51.22C175.82 51.9 174.18 52.24 172.62 52.24C171.3 52.24 170.1 52 169.02 51.52C167.94 51 167 50.26 166.2 49.3C165.4 48.3 164.76 47.04 164.28 45.52C163.84 43.96 163.62 42.1 163.62 39.94C163.62 37.7 163.9 35.34 164.46 32.86C165.02 30.38 165.78 27.92 166.74 25.48C167.7 23.04 168.88 20.72 170.28 18.52C171.68 16.32 173.22 14.38 174.9 12.7C176.58 10.98 178.38 9.62 180.3 8.62C182.22 7.62 184.22 7.12 186.3 7.12C188.1 7.12 189.58 7.5 190.74 8.26C191.94 8.98 192.86 9.94 193.5 11.14C194.18 12.3 194.66 13.62 194.94 15.1C195.22 16.58 195.36 18.06 195.36 19.54ZM172.56 38.38C172.56 38.82 172.64 39.28 172.8 39.76C172.96 40.24 173.18 40.66 173.46 41.02C173.74 41.38 174.08 41.7 174.48 41.98C174.92 42.22 175.38 42.34 175.86 42.34C177.66 42.34 179.26 41.72 180.66 40.48C182.06 39.24 183.22 37.72 184.14 35.92C185.06 34.12 185.76 32.2 186.24 30.16C186.76 28.12 187.02 26.26 187.02 24.58C187.02 24.1 186.98 23.58 186.9 23.02C186.86 22.46 186.74 21.94 186.54 21.46C186.38 20.98 186.1 20.58 185.7 20.26C185.34 19.9 184.84 19.72 184.2 19.72C182.92 19.72 181.74 20.04 180.66 20.68C179.58 21.32 178.6 22.18 177.72 23.26C176.88 24.3 176.14 25.5 175.5 26.86C174.86 28.18 174.3 29.54 173.82 30.94C173.38 32.3 173.06 33.64 172.86 34.96C172.66 36.28 172.56 37.42 172.56 38.38ZM224.95 19.54C224.95 22.82 224.59 25.92 223.87 28.84C223.19 31.72 222.27 34.38 221.11 36.82C219.95 39.22 218.59 41.38 217.03 43.3C215.51 45.18 213.91 46.8 212.23 48.16C210.55 49.48 208.85 50.5 207.13 51.22C205.41 51.9 203.77 52.24 202.21 52.24C200.89 52.24 199.69 52 198.61 51.52C197.53 51 196.59 50.26 195.79 49.3C194.99 48.3 194.35 47.04 193.87 45.52C193.43 43.96 193.21 42.1 193.21 39.94C193.21 37.7 193.49 35.34 194.05 32.86C194.61 30.38 195.37 27.92 196.33 25.48C197.29 23.04 198.47 20.72 199.87 18.52C201.27 16.32 202.81 14.38 204.49 12.7C206.17 10.98 207.97 9.62 209.89 8.62C211.81 7.62 213.81 7.12 215.89 7.12C217.69 7.12 219.17 7.5 220.33 8.26C221.53 8.98 222.45 9.94 223.09 11.14C223.77 12.3 224.25 13.62 224.53 15.1C224.81 16.58 224.95 18.06 224.95 19.54ZM202.15 38.38C202.15 38.82 202.23 39.28 202.39 39.76C202.55 40.24 202.77 40.66 203.05 41.02C203.33 41.38 203.67 41.7 204.07 41.98C204.51 42.22 204.97 42.34 205.45 42.34C207.25 42.34 208.85 41.72 210.25 40.48C211.65 39.24 212.81 37.72 213.73 35.92C214.65 34.12 215.35 32.2 215.83 30.16C216.35 28.12 216.61 26.26 216.61 24.58C216.61 24.1 216.57 23.58 216.49 23.02C216.45 22.46 216.33 21.94 216.13 21.46C215.97 20.98 215.69 20.58 215.29 20.26C214.93 19.9 214.43 19.72 213.79 19.72C212.51 19.72 211.33 20.04 210.25 20.68C209.17 21.32 208.19 22.18 207.31 23.26C206.47 24.3 205.73 25.5 205.09 26.86C204.45 28.18 203.89 29.54 203.41 30.94C202.97 32.3 202.65 33.64 202.45 34.96C202.25 36.28 202.15 37.42 202.15 38.38ZM251.479 21.34C251.479 23.42 251.179 25.64 250.579 28C249.979 30.32 249.139 32.64 248.059 34.96C246.979 37.24 245.639 39.44 244.039 41.56C242.479 43.64 240.699 45.48 238.699 47.08C236.699 48.64 234.499 49.9 232.099 50.86C229.739 51.82 227.219 52.3 224.539 52.3C223.979 52.3 223.419 52.26 222.859 52.18C222.299 52.14 221.739 52.08 221.179 52C222.259 46.48 223.319 41.1 224.359 35.86C224.759 33.66 225.179 31.38 225.619 29.02C226.059 26.62 226.479 24.26 226.879 21.94C227.279 19.62 227.659 17.4 228.019 15.28C228.419 13.16 228.739 11.24 228.979 9.52C230.699 9.2 232.439 8.9 234.199 8.62C235.959 8.34 237.759 8.2 239.599 8.2C241.759 8.2 243.579 8.54 245.059 9.22C246.579 9.9 247.799 10.84 248.719 12.04C249.679 13.24 250.379 14.64 250.819 16.24C251.259 17.84 251.479 19.54 251.479 21.34ZM237.319 16.66C236.879 19.02 236.419 21.28 235.939 23.44C235.459 25.6 234.979 27.78 234.499 29.98C234.019 32.18 233.539 34.48 233.059 36.88C232.579 39.28 232.119 41.9 231.679 44.74C232.639 44.1 233.559 43.24 234.439 42.16C235.359 41.04 236.219 39.76 237.019 38.32C237.819 36.88 238.539 35.36 239.179 33.76C239.859 32.16 240.439 30.6 240.919 29.08C241.399 27.56 241.759 26.14 241.999 24.82C242.279 23.5 242.419 22.36 242.419 21.4C242.419 19.92 241.999 18.76 241.159 17.92C240.359 17.08 239.079 16.66 237.319 16.66ZM263.984 50.08C262.744 50.08 261.424 50.12 260.024 50.2C258.664 50.28 257.284 50.4 255.884 50.56C254.484 50.72 253.104 50.94 251.744 51.22C250.424 51.46 249.224 51.76 248.144 52.12C248.384 50.32 248.664 48.32 248.984 46.12C249.304 43.92 249.664 41.64 250.064 39.28C250.504 36.92 250.924 34.54 251.324 32.14C251.764 29.74 252.204 27.44 252.644 25.24C253.644 20 254.704 14.66 255.824 9.22L266.324 7.84C265.244 12.48 264.204 17 263.204 21.4C262.764 23.28 262.324 25.24 261.884 27.28C261.444 29.28 261.024 31.24 260.624 33.16C260.224 35.08 259.864 36.94 259.544 38.74C259.224 40.54 258.964 42.14 258.764 43.54C259.764 43.46 260.824 43.42 261.944 43.42C263.104 43.38 264.124 43.36 265.004 43.36C265.044 44.12 265.104 44.88 265.184 45.64C265.264 46.36 265.344 47.02 265.424 47.62C265.544 48.22 265.624 48.76 265.664 49.24C265.744 49.68 265.804 49.98 265.844 50.14C265.524 50.14 265.204 50.14 264.884 50.14C264.604 50.1 264.304 50.08 263.984 50.08ZM266.009 52.06L273.869 9.4L292.829 7.78C292.549 8.66 292.309 9.56 292.109 10.48C291.909 11.24 291.709 12.04 291.509 12.88C291.349 13.68 291.209 14.4 291.089 15.04C290.689 15.08 290.109 15.12 289.349 15.16C288.629 15.16 287.849 15.18 287.009 15.22C286.169 15.22 285.309 15.22 284.429 15.22C283.589 15.22 282.849 15.22 282.209 15.22L280.109 25.96C281.349 25.88 282.509 25.82 283.589 25.78C284.469 25.74 285.369 25.72 286.289 25.72C287.209 25.72 287.889 25.7 288.329 25.66C288.169 26.78 288.009 27.88 287.849 28.96C287.729 30.04 287.569 31.14 287.369 32.26C286.969 32.3 286.309 32.34 285.389 32.38C284.509 32.38 283.609 32.4 282.689 32.44C281.649 32.48 280.509 32.52 279.269 32.56L277.229 43.6L285.989 42.22L285.389 49.06L266.009 52.06ZM312.559 37.18C312.559 39.42 312.119 41.46 311.239 43.3C310.399 45.1 309.239 46.66 307.759 47.98C306.319 49.3 304.599 50.32 302.599 51.04C300.639 51.76 298.519 52.12 296.239 52.12C294.639 52.12 293.039 51.7 291.439 50.86C289.839 49.98 288.299 48.6 286.819 46.72L291.259 38.02C291.539 38.54 291.959 39.08 292.519 39.64C293.079 40.16 293.699 40.62 294.379 41.02C295.099 41.42 295.799 41.76 296.479 42.04C297.199 42.28 297.839 42.4 298.399 42.4C298.879 42.4 299.379 42.32 299.899 42.16C300.419 42 300.899 41.76 301.339 41.44C301.779 41.12 302.119 40.76 302.359 40.36C302.639 39.92 302.779 39.42 302.779 38.86C302.779 37.9 302.459 37.02 301.819 36.22C301.219 35.38 300.459 34.6 299.539 33.88C298.619 33.12 297.619 32.36 296.539 31.6C295.459 30.84 294.459 30.04 293.539 29.2C292.659 28.36 291.899 27.42 291.259 26.38C290.619 25.34 290.299 24.18 290.299 22.9C290.299 20.82 290.919 18.88 292.159 17.08C293.399 15.28 294.939 13.74 296.779 12.46C298.659 11.14 300.699 10.1 302.899 9.34C305.099 8.58 307.179 8.2 309.139 8.2C310.219 8.2 311.239 8.34 312.199 8.62C313.159 8.86 313.979 9.28 314.659 9.88C315.379 10.44 315.939 11.16 316.339 12.04C316.779 12.92 316.999 14.02 316.999 15.34C316.999 15.9 316.939 16.46 316.819 17.02C316.739 17.58 316.659 18.18 316.579 18.82L307.879 21.34C307.959 21.02 308.019 20.7 308.059 20.38C308.139 20.06 308.179 19.74 308.179 19.42C308.179 18.22 307.959 17.36 307.519 16.84C307.119 16.28 306.579 16 305.899 16C305.579 16 305.179 16.12 304.699 16.36C304.259 16.6 303.799 16.92 303.319 17.32C302.879 17.68 302.499 18.12 302.179 18.64C301.859 19.16 301.699 19.72 301.699 20.32C301.699 21.28 301.959 22.08 302.479 22.72C303.039 23.36 303.719 23.96 304.519 24.52C305.319 25.08 306.179 25.66 307.099 26.26C308.059 26.82 308.939 27.56 309.739 28.48C310.539 29.4 311.199 30.56 311.719 31.96C312.279 33.32 312.559 35.06 312.559 37.18Z" fill="#FFD700"/>
<path d="M130.752 50.6C129.586 50.7867 128.302 50.9967 126.902 51.23C125.502 51.4633 124.242 51.6733 123.122 51.86C123.309 50.32 123.496 48.8033 123.682 47.31C123.822 46.0033 123.939 44.6967 124.032 43.39C124.172 42.0833 124.289 40.9633 124.382 40.03H118.292L115.492 50.11C114.466 50.25 113.252 50.4133 111.852 50.6C110.452 50.74 109.146 50.88 107.932 51.02C106.439 51.2067 104.969 51.3933 103.522 51.58C105.389 45.3733 107.232 39.26 109.052 33.24C109.799 30.72 110.569 28.0833 111.362 25.33C112.202 22.5767 113.019 19.8467 113.812 17.14C114.652 14.3867 115.446 11.75 116.192 9.23C116.939 6.71 117.592 4.4 118.152 2.3C121.326 2.06666 124.546 1.78666 127.812 1.46C131.126 1.13333 134.346 0.689997 137.472 0.129996C137.332 1.62333 137.169 3.49 136.982 5.73C136.842 7.92333 136.702 10.3267 136.562 12.94C136.422 15.5533 136.282 18.2833 136.142 21.13C136.002 23.9767 135.862 26.7767 135.722 29.53C135.489 35.97 135.232 42.8067 134.952 50.04C133.552 50.2733 132.152 50.46 130.752 50.6ZM119.972 33.03C120.159 33.03 120.486 33.03 120.952 33.03C121.466 32.9833 121.979 32.96 122.492 32.96C123.052 32.9133 123.566 32.89 124.032 32.89C124.499 32.8433 124.826 32.7967 125.012 32.75C125.012 32.47 125.036 32.0033 125.082 31.35C125.176 30.65 125.246 29.88 125.292 29.04C125.386 28.1533 125.479 27.1967 125.572 26.17C125.666 25.1433 125.759 24.14 125.852 23.16C126.039 20.78 126.272 18.2133 126.552 15.46L126.972 9.37L125.922 9.44L124.312 15.46L119.972 33.03Z" fill="#E90F0F"/>
</svg>
